# xmcd CD database file
#
# Track frame offsets:
#	150
#	11091
#	24916
#	42419
#	57443
#	73146
#	92151
#	107359
#	122330
#	137714
#	151605
#	153022
#	167856
#
# Disc length: 2433 seconds
#
# Revision: 0
# Processed by: cddbd v1.5.2PL0 Copyright (c) Steve Scherf et al.
# Submitted via: CDex 1.70beta2
#
DISCID=9a097f0d
DTITLE=Con Hunley - Shoot From The Heart
DYEAR=2006
DGENRE=Country
TTITLE0=Shoot From The Heart
TTITLE1=Deep In The Arms Of Texas
TTITLE2=Rockin' In The Arms Of Your Memory
TTITLE3=The Keys
TTITLE4=I Can't Make It Alone
TTITLE5=I Can See You With My Eyes Closed
TTITLE6=Look At Me Loving You Again
TTITLE7=Just Like Old Times
TTITLE8=Georgia On My Mind (Tribute to Ray)
TTITLE9=That Ol' Clock
TTITLE10=Words from Con
TTITLE11=Hollow Man
TTITLE12=Why Me Lord
EXTD=YEAR: 2006
EXTT0=
EXTT1=
EXTT2=
EXTT3=
EXTT4=
EXTT5=
EXTT6=
EXTT7=
EXTT8=
EXTT9=
EXTT10=
EXTT11=
EXTT12=
PLAYORDER=
